<svg width="64" height="64" viewBox="0 0 64 64" fill="none" xmlns="http://www.w3.org/2000/svg">
<rect width="64" height="64" rx="32" fill="white"/>
<path d="M40.7207 35.1504C40.7207 36.2637 40.4922 37.2012 40.0352 37.9629C39.5898 38.7129 38.9863 39.3223 38.2246 39.791C37.4746 40.2715 36.6074 40.623 35.623 40.8457C34.6504 41.0801 33.6367 41.2207 32.582 41.2676C31.5039 41.2559 30.4141 41.1445 29.3125 40.9336C28.8438 40.8516 28.3457 40.7344 27.8184 40.582C27.3027 40.4414 26.7754 40.2656 26.2363 40.0547C25.6973 39.8438 25.1582 39.5918 24.6191 39.2988C24.0801 39.0059 23.5645 38.666 23.0723 38.2793L24.7773 35.6074C25.4219 35.9473 26.0781 36.2754 26.7461 36.5918C27.4258 36.9082 28.1172 37.1895 28.8203 37.4355C29.5234 37.6699 30.2441 37.8574 30.9824 37.998C31.7207 38.1387 32.4824 38.209 33.2676 38.209C33.9121 38.209 34.457 38.1504 34.9023 38.0332C35.3477 37.9043 35.7109 37.752 35.9922 37.5762C36.2852 37.3887 36.5078 37.1836 36.6602 36.9609C36.8242 36.7266 36.9414 36.5039 37.0117 36.293C37.0703 36.1055 37.0938 35.9004 37.082 35.6777C37.0703 35.4434 37.0059 35.209 36.8887 34.9746C36.7832 34.7402 36.6133 34.5117 36.3789 34.2891C36.1562 34.0547 35.8574 33.8496 35.4824 33.6738C35.1074 33.4863 34.6504 33.334 34.1113 33.2168C33.5723 33.0996 32.9336 33.0234 32.1953 32.9883C31.1406 32.9414 30.1211 32.8359 29.1367 32.6719C28.1641 32.4961 27.291 32.2266 26.5176 31.8633C25.7559 31.5 25.123 31.0254 24.6191 30.4395C24.127 29.8418 23.8281 29.0977 23.7227 28.207C23.6406 27.3633 23.6934 26.5957 23.8809 25.9043C24.0801 25.2012 24.373 24.5742 24.7598 24.0234C25.1582 23.4727 25.6445 22.9922 26.2188 22.582C26.793 22.1602 27.4199 21.8145 28.0996 21.5449C28.7793 21.2637 29.4941 21.0586 30.2441 20.9297C31.0059 20.7891 31.7734 20.7188 32.5469 20.7188C33.0039 20.7188 33.543 20.7422 34.1641 20.7891C34.7852 20.8359 35.4355 20.9297 36.1152 21.0703C36.7949 21.2109 37.4805 21.416 38.1719 21.6855C38.8633 21.9434 39.5078 22.2891 40.1055 22.7227L38.8926 25.9395C38.1191 25.5293 37.3809 25.2129 36.6777 24.9902C35.9863 24.7559 35.3711 24.5742 34.832 24.4453C34.1992 24.3047 33.6074 24.2109 33.0566 24.1641C31.2168 24.0586 29.7812 24.252 28.75 24.7441C27.7305 25.2363 27.2207 25.9805 27.2207 26.9766C27.2207 27.6797 27.4141 28.1953 27.8008 28.5234C28.1875 28.8398 28.7148 29.0684 29.3828 29.209C30.0508 29.3496 30.8301 29.4434 31.7207 29.4902C32.6113 29.5371 33.5605 29.6367 34.5684 29.7891C35.7168 29.9648 36.6836 30.2285 37.4688 30.5801C38.2539 30.9316 38.8867 31.3418 39.3672 31.8105C39.8477 32.2793 40.1934 32.8008 40.4043 33.375C40.6152 33.9375 40.7207 34.5293 40.7207 35.1504Z" fill="#3B89B5"/>
</svg>
